<?xml version="1.0" encoding="utf-8"?>
<!-- Generator: Adobe Illustrator 15.0.0, SVG Export Plug-In . SVG Version: 6.00 Build 0)  -->
<!DOCTYPE svg PUBLIC "-//W3C//DTD SVG 1.1//EN" "http://www.w3.org/Graphics/SVG/1.1/DTD/svg11.dtd">
<svg version="1.1" id="Layer_1" xmlns="http://www.w3.org/2000/svg" xmlns:xlink="http://www.w3.org/1999/xlink" x="0px" y="0px"
	 width="300px" height="170px" viewBox="0 0 300 170" enable-background="new 0 0 300 170" xml:space="preserve">
<path fill="#FF5C01" d="M150,50c18.039,0,34.962,4.779,49.574,13.137l25.005-43.31C202.611,7.213,177.148,0,150,0
	c-27.148,0-52.611,7.213-74.578,19.826l25.005,43.31C115.039,54.778,131.961,50,150,50z"/>
<path fill="#DC3545" d="M225.441,20.333l-25.004,43.308C230.084,80.993,250,113.169,250,150h50
	C300,94.663,270.03,46.332,225.441,20.333z"/>
<path fill="#00D769" d="M0,150h50c0-36.832,19.916-69.008,49.563-86.36L74.56,20.333C29.97,46.331,0,94.662,0,150z"/>
<path opacity="0.1" fill="#231F20" d="M17,150L17,150h16.5l0,0c0-42.939,23.234-80.446,57.812-100.651l-8.251-14.292
	C43.552,58.116,17,100.954,17,150z"/>
<path opacity="0.1" fill="#231F20" d="M216.94,35.058l-8.251,14.291C243.267,69.554,266.5,107.062,266.5,150l0,0H283l0,0
	C283,100.955,256.449,58.116,216.94,35.058z"/>
<path opacity="0.1" fill="#231F20" d="M150,33.5c21.046,0,40.786,5.582,57.826,15.344l8.252-14.292
	C196.611,23.386,174.052,17,150,17c-24.051,0-46.61,6.385-66.077,17.551l8.251,14.292C109.214,39.082,128.955,33.5,150,33.5z"/>
<path fill="#DC3545" d="M150.001,25.333"/>
<g>
	<g>
		<path fill="#231F20" d="M161.799,168.358l4.897-8.72l-9.776-5.645c-2.21,3.827-7.103,5.137-10.929,2.928
			s-5.138-7.101-2.928-10.928L42.044,87.671l92.96,62.907l0.011,0.008c0.201,4.968,2.852,9.729,7.475,12.398
			c4.042,2.334,8.72,2.571,12.773,1.052l6.328,4.203L161.799,168.358z"/>
		<path fill="#414042" d="M171.799,151.038l-5.103,8.601l-9.776-5.645c2.209-3.827,0.897-8.72-2.929-10.929
			s-8.719-0.898-10.928,2.929L42.044,87.671l100.959,49.053l0.013,0.005c4.403-2.31,9.852-2.395,14.475,0.275
			c4.043,2.334,6.587,6.266,7.298,10.536l6.804,3.379L171.799,151.038z"/>
	</g>
	<circle fill="#FFFFFF" stroke="#F82B7E" stroke-miterlimit="10" cx="150" cy="150" r="7.999"/>
</g>
</svg>
